# xmcd CD database file
#
# Track frame offsets:
#	182
#	20605
#	40945
#
# Disc length: 938 seconds
#
# Revision: 1
# Processed by: cddbd v1.5.1PL0 Copyright (c) Steve Scherf et al.
# Submitted via: CDex 1.51
#
DISCID=1d03a803
DTITLE=Walter Trout Band - Running In Place
DYEAR=1992
DGENRE=Blues
TTITLE0=Running In Place
TTITLE1=Fast Movin' Traffic
TTITLE2=She's Missing
EXTD=YEAR: 1992
EXTT0=
EXTT1=
EXTT2=
PLAYORDER=
